<svg xmlns="http://www.w3.org/2000/svg" viewBox="-17609 -18706 65 71.971">
  <defs>
    <style>
      .cls-1 {
        fill: #d5d1c6;
      }

      .cls-2 {
        fill: #e65c19;
      }
    </style>
  </defs>
  <g id="Group_751" data-name="Group 751" transform="translate(-18218 -19589)">
    <circle id="Ellipse_12" data-name="Ellipse 12" class="cls-1" cx="27.5" cy="27.5" r="27.5" transform="translate(619 894)"/>
    <path id="Path_1583" data-name="Path 1583" class="cls-2" d="M628.87,361.28a15.42,15.42,0,0,1,8.84,2.08,3.36,3.36,0,0,1,3.28,1.88c.74,1.35,2.07,4.57,1,6.52-.34.4-1.07-1.21-1.07-1.21a6,6,0,0,1-1.54,2.69,15.311,15.311,0,0,1-1.94,7.8,2.08,2.08,0,0,0,.13,1.55c.2.54,2.88,10,2.75,13.17s-1.74,6.93-3,8.2a10.1,10.1,0,0,1-1.54,5.91,35.5,35.5,0,0,0-2.28,7c-.34,1.88-.47,3.9-.07,4.5s2.21,2.49,2.07,3.43-2.07,2-3,2-2.88-.61-3.35-1.88a9.6,9.6,0,0,1-.2-4.77c.34-1.28,2.61-10.62,1.28-16.13-3.29,1.48-8.78,1.41-8.78,1.41a53.419,53.419,0,0,1-2.08,7.73c-.4.67-.33,5.24-.33,8.13a43.889,43.889,0,0,0,1,7.39s1.41,1,1.21,2.29-1.81,2-3.21,2-3.28-1.07-3.28-2.82.27-5.71.13-8.6a34.129,34.129,0,0,0-.54-6.59,53.142,53.142,0,0,1-1.95-10.28,1.9,1.9,0,0,1-.94-.34s-2.21,2.56-3.75,4c.2,1,.74,2.82.74,3.23s.41.74,1.07,1,2.75,1.41,2.68,2.56-2.68,1.34-5,.34c-.54-.27-2.48-6.79-2.75-7.66s-.47-1.35-.13-2.09a12.059,12.059,0,0,0,1.14-4.57c-.13-1.41-2.75-3.63-4.49-3.63-1.34,0-3.39,2.06-4.89,3.23-1.81,1.41-3.88,3.56-4.42,3.9s-4.75,8-5.56,10.21c-.34.88-1,5.25-4.55,5.11-1.61-.13-3.08-1.88,1.47-5,1.16-2.67,2.77-5.45,2.87-6a128.89,128.89,0,0,1,3.32-14c2-6.55,5-9.68,5.52-10.13s.7-.55.25-.81-5.23-4.34-4.32-13c.15-1,.6-.76.9,1.56s2.16,7.76,6.28,9.48c.4.15,3.37-2.12,18.49-3.23.1-2.67.5-5.5.5-5.5a3.59,3.59,0,0,1-1.21-2.42c-.5.81-.8,1-1.46.91s-.6-3.22-.45-5.44,2.71-3.18,3.67-3.28a5.4,5.4,0,0,1,2.61-.55s2.31-2.35,8.84-1.28Zm0,0" transform="translate(29.025 522)"/>
  </g>
</svg>
